<svg width="75" height="57" viewBox="0 0 75 57" fill="none" xmlns="http://www.w3.org/2000/svg">
<path d="M72.6819 52.3657C70.5893 55.3829 68.0201 56.0159 66.2342 56.0159H9.62513C7.56069 56.0159 5.61068 55.3941 3.98763 54.2177C2.48467 53.1156 1.32877 51.6062 0.656634 49.8679C-0.0154989 48.1296 -0.17574 46.2352 0.194863 44.4088C0.600298 42.4431 1.62631 40.6742 3.15126 39.2813L7.18468 35.6115C7.80687 35.0454 8.62844 34.7497 9.46868 34.7894C10.3089 34.829 11.099 35.2009 11.6651 35.823C12.2311 36.4452 12.5269 37.2668 12.4872 38.107C12.4475 38.9473 12.0757 39.7373 11.4535 40.3034L7.42009 43.9726C5.87879 45.3753 6.3797 47.0872 6.56999 47.5783C6.76028 48.0694 7.54238 49.6709 9.62578 49.6709H66.2342C66.4127 49.6709 66.8299 49.6709 67.4708 48.7476C67.8634 48.1854 68.1299 47.5451 68.2519 46.8703C68.3739 46.1956 68.3486 45.5024 68.1777 44.8384C68.0072 44.1516 67.6922 43.509 67.2538 42.9536C66.8154 42.3981 66.2636 41.9425 65.6352 41.6172L48.5174 32.7617C48.5265 32.9731 48.5311 33.187 48.5311 33.4032C48.5311 37.1266 47.2045 40.0863 44.5513 42.2822C41.8981 44.4781 38.3279 45.5769 33.8407 45.5786C29.6991 45.5786 26.5064 44.4857 24.2626 42.2999C22.0188 40.114 20.8225 36.9346 20.6739 32.7617H20.6863C20.692 32.3108 20.7864 31.8655 20.9641 31.4512C21.1419 31.0368 21.3995 30.6615 21.7223 30.3468C22.0451 30.032 22.4268 29.7838 22.8455 29.6165C23.2642 29.4493 23.7117 29.3661 24.1626 29.3717C24.6134 29.3774 25.0587 29.4718 25.4731 29.6496C25.8874 29.8273 26.2627 30.085 26.5775 30.4078C26.8923 30.7306 27.1404 31.1122 27.3077 31.5309C27.475 31.9496 27.5582 32.3972 27.5525 32.848C27.5525 32.9343 27.5492 33.0193 27.5434 33.1043C27.5621 35.2366 28.124 36.8952 29.2292 38.0801C30.3522 39.2863 31.9148 39.8895 33.9172 39.8895C36.1902 39.8895 38.0498 39.2687 39.4958 38.0271C40.9419 36.7855 41.6649 35.2204 41.6649 33.3319C41.6649 31.7189 41.1707 30.3589 40.1824 29.2521C39.1941 28.1452 36.7491 26.6488 32.8474 24.7629L29.7451 23.2379C26.8617 21.8729 24.7058 20.2222 23.2771 18.2857C21.8485 16.3492 21.1334 14.1146 21.1316 11.5817C21.1316 8.13288 22.4198 5.3404 24.9963 3.20424C27.5728 1.06808 30.9545 0 35.1413 0C38.9075 0 41.9374 1.01293 44.2309 3.03879C46.4176 4.97267 47.6849 7.61366 48.0328 10.9618C48.0686 11.1491 48.0866 11.3393 48.0864 11.53C48.0864 13.3035 46.5556 14.7408 44.6671 14.7408C42.7785 14.7408 41.2477 13.3022 41.2477 11.53C41.2477 11.4326 41.2523 11.3338 41.2614 11.2403C41.1258 9.54492 40.495 8.20546 39.369 7.22196C38.1993 6.20009 36.629 5.68916 34.6581 5.68916C32.7115 5.68916 31.104 6.23584 29.8354 7.3292C28.5668 8.42257 27.9324 9.78949 27.9324 11.43C27.9324 12.8215 28.4743 14.0703 29.5581 15.1763C30.6419 16.2823 32.6496 17.5557 35.5814 18.9965L38.0951 20.1873C38.9914 20.6294 39.8258 21.0749 40.5983 21.524L68.5497 35.9855C69.9792 36.725 71.2345 37.7607 72.232 39.0236C73.2295 40.2866 73.9462 41.7477 74.3344 43.3095C74.7187 44.8497 74.7701 46.4542 74.4851 48.0159C74.2002 49.5776 73.5854 51.0605 72.6819 52.3657Z" fill="#093731"/>
</svg>
